<svg xmlns="http://www.w3.org/2000/svg" width="980" height="720" version="1">
  <g fill="none" stroke="#000" stroke-width="4">
    <path d="M21.137683 32.017609l876.006368-.928957 1.21312 657.989207-439.68078-1.21667L21.137683 32.017609zm438.467658 0l217.37592 655.84358m-509.06839-436.60975l729.23118-.92896"/>
    <path d="M315.617021 470.485269l579.66911-1.85791h.92896v-.92896"/>
  </g>
  <g font-size="60">
    <path d="M105.5587675 60.6984957a18.0000005 17.9999995 0 1 1-36.000001 0 18.0000005 17.9999995 0 1 1 36.000001 0z" font-size="59.9768486"/>
    <text x="66" y="595.13184" style="text-align:center;line-height:100%;-inkscape-font-specification:DejaVu Serif" text-anchor="middle" font-family="DejaVu Serif" transform="translate(-8.756 -478.512)">
      <tspan x="66" y="595.13184" style="text-align:end;-inkscape-font-specification:DejaVu Serif" text-anchor="end">iː</tspan>
    </text>
    <path d="M291.2375141 402.9999957a18.0000005 17.9999995 0 1 1-36.000001 0 18.0000005 17.9999995 0 1 1 36.000001 0z" font-size="59.9768486"/>
    <text x="66" y="545.49512" style="text-align:center;line-height:100%;-inkscape-font-specification:DejaVu Serif" text-anchor="middle" font-family="DejaVu Serif" transform="translate(176.923 -129)">
      <tspan x="66" y="545.49512" style="text-align:end;-inkscape-font-specification:DejaVu Serif" text-anchor="end">e</tspan>
    </text>
    <path d="M431.5914841 598.5423507a18.0000005 17.9999995 0 1 1-36.000001 0 18.0000005 17.9999995 0 1 1 36.000001 0z" font-size="59.9768486"/>
    <text x="66" y="547.57129" style="text-align:center;line-height:100%;-inkscape-font-specification:DejaVu Serif" text-anchor="middle" font-family="DejaVu Serif" transform="translate(317.277 66.542)">
      <tspan x="66" y="547.57129" style="text-align:end;-inkscape-font-specification:DejaVu Serif" text-anchor="end">æ</tspan>
    </text>
    <path d="M636.3778441 549.9999997a18.0000005 17.9999995 0 1 1-36.000001 0 18.0000005 17.9999995 0 1 1 36.000001 0z" font-size="59.9768486"/>
    <text x="66" y="547.57129" style="text-align:center;line-height:100%;-inkscape-font-specification:DejaVu Serif" text-anchor="middle" font-family="DejaVu Serif" transform="translate(522.063 18)">
      <tspan x="66" y="547.57129" style="text-align:end;-inkscape-font-specification:DejaVu Serif" text-anchor="end">ʌ</tspan>
    </text>
    <path d="M768.3599141 61.9999957a18.0000005 17.9999995 0 1 1-36.000001 0 18.0000005 17.9999995 0 1 1 36.000001 0z" font-size="59.9768486"/>
    <text x="128" y="547.14648" style="text-align:start;line-height:100%;-inkscape-font-specification:DejaVu Serif" font-family="DejaVu Serif" transform="translate(654.045 -470)">
      <tspan x="128" y="547.14648" style="text-align:start;-inkscape-font-specification:DejaVu Serif">uː</tspan>
    </text>
    <path d="M584.2001041 359.1264057a18.0000005 17.9999995 0 1 1-36.000001 0 18.0000005 17.9999995 0 1 1 36.000001 0z" font-size="59.9768486"/>
    <text x="66" y="551.13184" style="text-align:center;line-height:100%;-inkscape-font-specification:DejaVu Serif" text-anchor="middle" font-family="DejaVu Serif" transform="translate(469.886 -180.084)">
      <tspan x="66" y="551.13184" style="text-align:end;-inkscape-font-specification:DejaVu Serif" text-anchor="end">ə,ɜː</tspan>
    </text>
    <path d="M694.2480641 160.3778357a18.0000005 17.9999995 0 1 1-36.000001 0 18.0000005 17.9999995 0 1 1 36.000001 0z" font-size="59.9768486"/>
    <text x="128" y="547.14648" style="text-align:start;line-height:100%;-inkscape-font-specification:DejaVu Serif" font-family="DejaVu Serif" transform="translate(579.934 -371.622)">
      <tspan x="128" y="547.14648" style="text-align:start;-inkscape-font-specification:DejaVu Serif">ʊ</tspan>
    </text>
    <path d="M895.4122741 305.4005857a18.0000005 17.9999995 0 1 1-36.000001 0 18.0000005 17.9999995 0 1 1 36.000001 0z" font-size="59.9768486"/>
    <text x="134" y="547.14648" style="text-align:start;line-height:100%;-inkscape-font-specification:DejaVu Serif" font-family="DejaVu Serif" transform="translate(781.098 -226.6)">
      <tspan x="134" y="547.14648" style="text-align:start;-inkscape-font-specification:DejaVu Serif">ɔː</tspan>
    </text>
    <path d="M362.5332041 157.2443057a18.0000005 17.9999995 0 1 1-36.000001 0 18.0000005 17.9999995 0 1 1 36.000001 0z" font-size="59.9768486"/>
    <text x="66" y="545.49512" style="text-align:center;line-height:100%;-inkscape-font-specification:DejaVu Serif" text-anchor="middle" font-family="DejaVu Serif" transform="translate(248.22 -374.756)">
      <tspan x="66" y="545.49512" style="text-align:end;-inkscape-font-specification:DejaVu Serif" text-anchor="end">ɪ</tspan>
    </text>
    <path d="M852.3237441 666.5648857a18.0000005 17.9999995 0 1 1-36.000001 0 18.0000005 17.9999995 0 1 1 36.000001 0z" font-size="59.9768486"/>
    <text x="66" y="541.57129" style="text-align:center;line-height:100%;-inkscape-font-specification:DejaVu Serif" text-anchor="middle" font-family="DejaVu Serif" transform="translate(738.01 134.565)">
      <tspan x="66" y="541.57129" style="text-align:end;-inkscape-font-specification:DejaVu Serif" text-anchor="end">ɑː</tspan>
    </text>
    <path d="M893.4088141 600.1756887a18.0000005 17.9999995 0 1 1-36.000001 0 18.0000005 17.9999995 0 1 1 36.000001 0z" font-size="59.9768486"/>
    <text x="134" y="547.14648" style="text-align:start;line-height:100%;-inkscape-font-specification:DejaVu Serif" font-family="DejaVu Serif" transform="translate(779.094 68.176)">
      <tspan x="134" y="547.14648" style="text-align:start;-inkscape-font-specification:DejaVu Serif">ɒ</tspan>
    </text>
  </g>
</svg>
